<svg width="218" height="40" viewBox="0 0 218 40" fill="none" xmlns="http://www.w3.org/2000/svg">
<path fill-rule="evenodd" clip-rule="evenodd" d="M0 0H40V9.39597H0V0ZM12.7711 15.302H40V24.698H12.7711V15.302ZM0 30.604H40V40H0V30.604Z" fill="#B71B34"/>
<path d="M64.71 9.26C65.27 9.26 65.83 9.28 66.39 9.32C66.95 9.34 67.5 9.41 68.04 9.53C68.58 9.65 69.1 9.83 69.6 10.07C70.12 10.29 70.6 10.6 71.04 11C71.74 11.64 72.24 12.41 72.54 13.31C72.84 14.19 72.98 15.09 72.96 16.01C72.94 17.25 72.72 18.3 72.3 19.16C71.9 20.02 71.35 20.75 70.65 21.35C70.01 21.87 69.27 22.24 68.43 22.46L73.14 30.5H68.28L63.99 22.88H60.6V30.5H56.25V9.26H64.71ZM64.74 19.22C65.28 19.22 65.79 19.17 66.27 19.07C66.75 18.97 67.16 18.81 67.5 18.59C67.86 18.35 68.14 18.04 68.34 17.66C68.56 17.26 68.68 16.76 68.7 16.16C68.72 15.52 68.63 15 68.43 14.6C68.23 14.2 67.95 13.89 67.59 13.67C67.25 13.45 66.84 13.31 66.36 13.25C65.9 13.17 65.39 13.13 64.83 13.13H60.6V19.22H64.74ZM85.6413 30.74C83.9813 30.74 82.5613 30.5 81.3813 30.02C80.2213 29.54 79.2713 28.86 78.5313 27.98C77.8113 27.1 77.2813 26.05 76.9413 24.83C76.6213 23.59 76.4613 22.2 76.4613 20.66V9.26H80.8113V20.96C80.8113 21.74 80.8913 22.49 81.0513 23.21C81.2113 23.91 81.4813 24.53 81.8613 25.07C82.2413 25.61 82.7413 26.05 83.3613 26.39C83.9813 26.71 84.7613 26.87 85.7013 26.87C86.6213 26.87 87.3913 26.71 88.0113 26.39C88.6313 26.05 89.1213 25.61 89.4813 25.07C89.8613 24.51 90.1213 23.88 90.2613 23.18C90.4213 22.46 90.5013 21.72 90.5013 20.96V9.26H94.8213V20.66C94.8213 22.16 94.6513 23.54 94.3113 24.8C93.9913 26.04 93.4613 27.1 92.7213 27.98C92.0013 28.86 91.0513 29.54 89.8713 30.02C88.7113 30.5 87.3013 30.74 85.6413 30.74ZM99.1699 30.5V9.26H107C108.02 9.26 109.02 9.35 110 9.53C110.98 9.69 111.92 10.01 112.82 10.49C114.42 11.31 115.62 12.52 116.42 14.12C117.24 15.72 117.65 17.65 117.65 19.91C117.65 23.33 116.76 25.95 114.98 27.77C113.22 29.59 110.63 30.5 107.21 30.5H99.1699ZM107.24 26.66C107.52 26.66 107.82 26.64 108.14 26.6C108.46 26.56 108.78 26.51 109.1 26.45C109.42 26.37 109.72 26.28 110 26.18C110.28 26.08 110.52 25.97 110.72 25.85C111.54 25.29 112.15 24.5 112.55 23.48C112.97 22.44 113.18 21.25 113.18 19.91C113.18 18.85 113.06 17.89 112.82 17.03C112.58 16.17 112.21 15.44 111.71 14.84C111.15 14.18 110.43 13.73 109.55 13.49C108.69 13.25 107.84 13.13 107 13.13H103.52V26.66H107.24ZM119.946 13.13V9.26H136.596V12.68L125.166 26.66H136.386V30.5H119.706V27.05L131.136 13.13H119.946ZM147.965 9.26C149.245 9.26 150.405 9.4 151.445 9.68C152.485 9.94 153.365 10.37 154.085 10.97C154.825 11.55 155.385 12.32 155.765 13.28C156.165 14.22 156.355 15.38 156.335 16.76C156.315 17.96 156.105 19.03 155.705 19.97C155.305 20.89 154.745 21.67 154.025 22.31C153.325 22.93 152.475 23.41 151.475 23.75C150.495 24.07 149.425 24.23 148.265 24.23H144.155V30.5H139.805V9.26H147.965ZM148.025 20.39C148.565 20.39 149.075 20.32 149.555 20.18C150.055 20.04 150.485 19.82 150.845 19.52C151.205 19.22 151.495 18.85 151.715 18.41C151.935 17.97 152.055 17.45 152.075 16.85C152.115 15.49 151.745 14.53 150.965 13.97C150.205 13.41 149.215 13.13 147.995 13.13H144.155V20.39H148.025ZM162.252 26.45L160.722 30.5H155.982L164.202 9.26H169.122L177.222 30.5H172.452L170.982 26.45H162.252ZM163.512 22.61H169.692L166.632 13.85L163.512 22.61ZM187.933 9.26C188.493 9.26 189.053 9.28 189.613 9.32C190.173 9.34 190.723 9.41 191.263 9.53C191.803 9.65 192.323 9.83 192.823 10.07C193.343 10.29 193.823 10.6 194.263 11C194.963 11.64 195.463 12.41 195.763 13.31C196.063 14.19 196.203 15.09 196.183 16.01C196.163 17.25 195.943 18.3 195.523 19.16C195.123 20.02 194.573 20.75 193.873 21.35C193.233 21.87 192.493 22.24 191.653 22.46L196.363 30.5H191.503L187.213 22.88H183.823V30.5H179.473V9.26H187.933ZM187.963 19.22C188.503 19.22 189.013 19.17 189.493 19.07C189.973 18.97 190.383 18.81 190.723 18.59C191.083 18.35 191.363 18.04 191.563 17.66C191.783 17.26 191.903 16.76 191.923 16.16C191.943 15.52 191.853 15 191.653 14.6C191.453 14.2 191.173 13.89 190.813 13.67C190.473 13.45 190.063 13.31 189.583 13.25C189.123 13.17 188.613 13.13 188.053 13.13H183.823V19.22H187.963ZM204.184 21.86V30.5H199.834V9.26H204.184V18.02H206.434L212.614 9.26H217.654L210.154 19.34L217.744 30.5H212.674L206.854 21.86H204.184Z" fill="white"/>
</svg>
